HIERARCHY
ROOT Hips
{
     OFFSET 24.59950 99.02860 -26.77010
     CHANNELS 6 Xposition Yposition Zposition Zrotation Xrotation Yrotation
     JOINT Spine
     {
          OFFSET 0.00000 11.89050 0.00000
          CHANNELS 3 Zrotation Xrotation Yrotation
          JOINT Spine1
          {
               OFFSET 0.00000 25.65740 0.12766
               CHANNELS 3 Zrotation Xrotation Yrotation
               JOINT HEad
               {
                    OFFSET 0.00000 8.73416 0.01134
                    CHANNELS 3 Zrotation Xrotation Yrotation
                    End Site
                    {
                         OFFSET -0.29000 12.77420 2.51395
                    }
               }
               JOINT LeftShoulder1
               {
                    OFFSET 8.99000 -0.36225 -0.22000
                    CHANNELS 3 Zrotation Xrotation Yrotation
                    JOINT LeftArm
                    {
                         OFFSET 10.28270 -0.00338 0.32212
                         CHANNELS 3 Zrotation Xrotation Yrotation
                         JOINT LeftForeArm
                         {
                              OFFSET 32.76690 0.09914 -1.42434
                              CHANNELS 3 Zrotation Xrotation Yrotation
                              JOINT LeftHand
                              {
                                   OFFSET 27.56430 0.08536 1.02216
                                   CHANNELS 3 Zrotation Xrotation Yrotation
                                   End Site
                                   {
                                        OFFSET 16.74430 -0.60000 1.50291
                                   }
                              }
                         }
                    }
               }
               JOINT RightShoulder
               {
                    OFFSET -8.99000 -0.36225 -0.22000
                    CHANNELS 3 Zrotation Xrotation Yrotation
                    JOINT RightArm
                    {
                         OFFSET -10.28270 -0.00338 0.32212
                         CHANNELS 3 Zrotation Xrotation Yrotation
                         JOINT RightForeArm
                         {
                              OFFSET -32.89710 0.09914 -1.42434
                              CHANNELS 3 Zrotation Xrotation Yrotation
                              JOINT RightHand
                              {
                                   OFFSET -27.49210 0.08536 1.02216
                                   CHANNELS 3 Zrotation Xrotation Yrotation
                                   End Site
                                   {
                                        OFFSET -16.63120 -0.60000 1.50291
                                   }
                              }
                         }
                    }
               }
          }
     }
     JOINT LeftUpLeg
     {
          OFFSET 8.94580 -8.66707 0.10165
          CHANNELS 3 Zrotation Xrotation Yrotation
          JOINT LeftLeg
          {
               OFFSET 0.00000 -44.42270 1.37270
               CHANNELS 3 Zrotation Xrotation Yrotation
               JOINT LeftFoot
               {
                    OFFSET -0.25355 -42.09240 -1.46059
                    CHANNELS 3 Zrotation Xrotation Yrotation
                    JOINT LeftToes
                    {
                         OFFSET -0.04000 -4.41509 8.49910
                         CHANNELS 3 Zrotation Xrotation Yrotation
                         End Site
                         {
                              OFFSET 0.08000 -0.04745 9.77979
                         }
                    }
               }
          }
     }
     JOINT RightUpLeg
     {
          OFFSET -8.94580 -8.66707 0.10165
          CHANNELS 3 Zrotation Xrotation Yrotation
          JOINT RightLeg
          {
               OFFSET 0.00000 -44.42270 1.37270
               CHANNELS 3 Zrotation Xrotation Yrotation
               JOINT RightFoot
               {
                    OFFSET 0.25355 -42.09240 -1.46059
                    CHANNELS 3 Zrotation Xrotation Yrotation
                    JOINT RightToes
                    {
                         OFFSET 0.04000 -4.41509 8.49910
                         CHANNELS 3 Zrotation Xrotation Yrotation
                         End Site
                         {
                              OFFSET -0.08000 -0.13745 9.77979
                         }
                    }
               }
          }
     }
}
MOTION
Frames: 15
Frame Time: 0.01667
43.14720 101.87600 -12.57440 -41.26070 -2.19147 -49.93470 11.24290 15.01850 -4.88640 22.71770 28.29810 -12.98870 -22.15840 18.61710 23.25060 0.00000 0.00000 0.00000 -13.85850 -19.59660 -51.23300 -10.43400 8.16704 8.69655 29.21460 10.04720 4.91658 12.27080 1.29851 5.83667 73.13160 -26.97710 96.77090 -4.19009 30.18320 97.78600 -13.75960 8.17169 10.91570 29.82960 19.11390 -8.65088 -6.97065 14.79010 27.85350 2.56172 -6.14445 -0.01250 -4.76712 -2.85160 -9.19462 -80.24590 -61.90760 -80.31960 -166.55000 77.91600 179.31400 34.22690 16.76900 -7.47603 37.21870 57.41140 -44.18950 
43.05780 101.81700 -12.53550 -40.59600 -2.37003 -49.97980 10.82960 14.71960 -4.78435 22.32120 28.02240 -12.49280 -22.53090 18.46540 23.14730 0.00000 0.00000 0.00000 -14.51710 -19.55860 -51.84200 -9.98378 7.84271 8.52844 28.72900 10.00970 4.77485 11.98590 1.28044 5.84579 73.68860 -27.24190 96.70950 -4.69083 30.69040 98.48760 -14.20430 8.15230 10.57720 29.21220 18.64950 -8.36992 -7.15478 15.11000 27.94180 2.37719 -6.24044 -0.00746 -4.92466 -3.08539 -9.09348 -78.89000 -61.50350 -77.96470 -168.52800 78.53900 -178.50900 34.09500 16.68310 -7.42007 37.27340 57.55380 -44.07350 
43.04720 101.75000 -12.54320 -39.75140 -2.57555 -49.97410 10.45990 14.43690 -4.60897 21.86550 27.72410 -11.88830 -22.62930 18.25150 22.95950 0.00000 0.00000 0.00000 -15.17810 -19.41040 -52.46280 -9.13279 7.36711 8.20530 28.23520 10.00020 4.74428 11.73570 1.25846 5.81248 73.61770 -27.59230 96.25440 -5.22562 30.85440 98.84080 -14.19860 8.18553 10.30380 28.39820 17.94560 -7.93173 -7.29414 15.52650 27.88990 2.19292 -6.39555 -0.00124 -4.86320 -3.10459 -8.85491 -77.34230 -60.96230 -75.27960 -170.90300 79.26130 -175.55400 33.77970 16.61170 -7.32672 36.69480 57.44200 -43.29110 
43.14710 101.67700 -12.59120 -38.73760 -2.73902 -49.93260 10.19970 14.18920 -4.36619 21.36370 27.39570 -11.20700 -22.58330 17.98210 22.73480 0.00000 0.00000 0.00000 -15.98320 -19.24830 -52.99330 -7.69224 6.58238 7.65230 27.91420 10.02390 4.84913 11.49290 1.23589 5.77061 73.06110 -27.87320 95.41030 -5.50557 30.65660 98.61930 -13.69710 8.27001 10.12970 27.43750 16.99630 -7.46079 -7.42125 15.95430 27.82280 2.06496 -6.50402 0.00281 -4.73468 -3.06523 -8.55388 -75.40400 -60.34880 -72.11110 -173.82201 80.15270 -171.76500 33.39390 16.62260 -7.24182 35.38260 56.98680 -41.76870 
43.37380 101.61400 -12.66980 -37.57850 -2.78101 -49.87860 10.14990 13.99530 -4.06418 20.84500 27.03970 -10.47640 -22.47140 17.66430 22.49570 0.00000 0.00000 0.00000 -17.05670 -19.14240 -53.35710 -5.52280 5.34945 6.80730 27.84600 10.05020 4.96139 11.24360 1.21512 5.74304 72.27550 -27.96940 94.29200 -5.44155 30.19900 97.84940 -12.81650 8.39524 10.00370 26.40080 15.83240 -7.05155 -7.54349 16.27070 27.83400 1.99155 -6.47478 0.00287 -4.61930 -3.05111 -8.22845 -72.82800 -59.73500 -68.13140 -178.48700 81.25930 -166.10001 33.06090 16.55240 -7.14570 33.56940 56.19280 -39.80840 
43.63750 101.57400 -12.77020 -36.33570 -2.69933 -49.77860 10.26130 13.82170 -3.73490 20.32200 26.64910 -9.70235 -22.29630 17.31700 22.22250 0.00000 0.00000 0.00000 -18.44230 -19.11810 -53.54010 -2.61359 3.68296 5.64796 27.98990 10.02190 4.83928 11.01800 1.19732 5.72429 71.47760 -27.88690 93.08300 -5.15768 29.65560 96.78540 -11.87170 8.52949 9.84470 25.39160 14.53930 -6.71490 -7.62353 16.45290 27.83700 1.89433 -6.33504 0.00070 -4.50324 -3.03272 -7.90967 -69.46790 -59.07160 -62.85970 171.42500 82.34520 -154.95700 32.77840 16.07230 -6.94469 31.58410 55.15480 -37.76690 
43.84870 101.56800 -12.88930 -35.04840 -2.52022 -49.58740 10.43830 13.62580 -3.39658 19.80100 26.21430 -8.88552 -22.03730 16.98380 21.86570 0.00000 0.00000 0.00000 -20.13470 -19.19740 -53.59890 0.45310 1.78537 3.06243 28.23630 9.89169 4.29417 10.84890 1.18216 5.69680 70.81000 -27.72360 91.95920 -4.86722 29.18250 95.74950 -11.17300 8.63446 9.64484 24.48150 13.20020 -6.37135 -7.62878 16.48300 27.69650 1.75364 -6.13187 -0.00203 -4.36572 -2.94816 -7.68732 -65.28380 -58.28650 -56.78090 158.33000 83.13070 -140.84599 32.54620 14.93000 -6.57021 29.72890 54.02310 -35.94720 
43.95680 101.59700 -13.03170 -33.74720 -2.28395 -49.26130 10.61210 13.38910 -3.06279 19.29370 25.73420 -8.05276 -21.70290 16.70380 21.39100 0.00000 0.00000 0.00000 -22.13590 -19.42400 -53.61210 2.40377 -0.27477 -3.07240 28.49000 9.67043 3.38581 10.72110 1.16907 5.66385 70.41410 -27.57490 91.02850 -4.75975 28.87650 95.00090 -10.81300 8.69341 9.47536 23.71830 11.88170 -5.91393 -7.56055 16.34880 27.29410 1.58890 -5.90391 -0.00438 -4.19475 -2.73492 -7.68199 -60.36350 -57.20640 -50.14690 143.25600 83.55950 -124.81000 32.27790 13.24900 -6.04305 27.99660 52.84550 -34.28190 
43.94610 101.65300 -13.20690 -32.45590 -2.05296 -48.75810 10.74380 13.11610 -2.75424 18.79800 25.22050 -7.25922 -21.33670 16.48300 20.80230 0.00000 0.00000 0.00000 -24.49030 -19.87010 -53.64830 3.91733 -2.18636 -10.06970 28.71380 9.42622 2.39988 10.59690 1.15902 5.65074 70.41640 -27.48820 90.32300 -4.94221 28.78280 94.68320 -10.68890 8.71653 9.38187 23.10020 10.61990 -5.24961 -7.41223 16.09200 26.52650 1.32000 -5.68433 -0.00412 -3.95906 -2.33010 -7.96226 -54.93500 -55.64280 -43.22120 126.68000 83.64050 -107.43900 31.89970 11.36480 -5.44898 26.35440 51.64320 -32.68930 
43.82080 101.71500 -13.42610 -31.19450 -1.89636 -48.03660 10.82460 12.82180 -2.49168 18.29870 24.69070 -6.55516 -20.96840 16.32730 20.10460 0.00000 0.00000 0.00000 -27.30290 -20.61540 -53.81180 4.78821 -3.57667 -17.87950 28.88090 9.23079 1.62220 10.48190 1.15351 5.66615 70.84110 -27.47870 89.82220 -5.38055 28.90720 94.80150 -10.64750 8.72651 9.32412 22.58610 9.41345 -4.35470 -7.16173 15.81230 25.34070 0.78903 -5.49746 0.00266 -3.64598 -1.73724 -8.49892 -49.34430 -53.44770 -36.26580 108.77100 83.26460 -89.11620 31.38880 9.68091 -4.90168 24.84530 50.46030 -31.20750 
43.59080 101.76400 -13.69980 -29.97780 -1.86475 -47.06010 10.85590 12.51600 -2.28366 17.77650 24.15520 -5.95735 -20.54700 16.26210 19.26430 0.00000 0.00000 0.00000 -30.72350 -21.70640 -54.26960 4.90077 -4.11728 -26.32240 28.93520 9.11988 1.18072 10.43430 1.15266 5.68319 71.59440 -27.55240 89.47000 -5.90478 29.22060 95.23720 -10.59310 8.74111 9.23032 22.13400 8.23244 -3.31420 -6.82120 15.61440 23.78300 -0.02957 -5.37204 0.01745 -3.28259 -1.04739 -9.16398 -43.94860 -50.56550 -29.55710 91.19070 82.24510 -71.68590 30.79460 8.47476 -4.48531 23.64080 49.40190 -30.09070 
43.26050 101.78800 -14.03280 -28.80200 -1.97970 -45.81890 10.81650 12.19630 -2.12178 17.20790 23.61090 -5.44651 -19.93560 16.27180 18.23430 0.00000 0.00000 0.00000 -34.89140 -23.12040 -55.18690 4.26638 -3.49299 -35.04910 28.87110 9.08584 1.03589 10.51040 1.15553 5.66711 72.51530 -27.71330 89.18950 -6.31885 29.66520 95.80900 -10.51610 8.76322 9.07883 21.70710 7.04106 -2.26159 -6.43963 15.56660 21.96550 -0.97664 -5.33893 0.03654 -2.92030 -0.39030 -9.78248 -38.99100 -47.06380 -23.36100 76.10920 80.56280 -57.38690 30.22010 7.74825 -4.21000 23.06920 48.72010 -29.78870 
42.82910 101.78200 -14.41950 -27.63700 -2.23453 -44.35960 10.66290 11.85530 -1.97962 16.56300 23.04680 -4.97305 -19.00290 16.26420 17.00990 0.00000 0.00000 0.00000 -39.84900 -24.72480 -56.64320 3.08241 -1.51465 -43.60040 28.76870 9.09325 1.05345 10.72200 1.16098 5.60498 73.44970 -27.96500 88.91100 -6.50427 30.17670 96.35380 -10.43350 8.78778 8.90353 21.25680 5.81476 -1.27476 -6.05212 15.69920 19.99500 -1.87488 -5.39547 0.05423 -2.63616 0.10169 -10.22690 -34.55030 -43.11950 -17.86200 63.85990 78.39180 -46.52000 29.76300 7.34056 -4.04021 23.39970 48.70270 -30.56710 
42.29860 101.74000 -14.84470 -26.44650 -2.59683 -42.77840 10.35980 11.49350 -1.81736 15.81710 22.46130 -4.46656 -17.77850 16.18060 15.64430 0.00000 0.00000 0.00000 -45.47930 -26.27920 -58.60290 1.66812 1.69690 -51.55970 28.71210 9.11372 1.12973 11.04160 1.16669 5.49633 74.30780 -28.31100 88.60400 -6.45385 30.71600 96.79630 -10.34100 8.81286 8.73244 20.73830 4.54403 -0.36774 -5.66656 16.01930 17.96340 -2.63968 -5.51170 0.06744 -2.49578 0.34902 -10.46760 -30.57600 -38.95110 -13.12980 53.56780 75.91040 -38.08460 29.45750 7.11471 -3.94053 24.56460 49.34040 -32.22970 
41.67670 101.65400 -15.28770 -25.21420 -3.02245 -41.17280 9.90231 11.12590 -1.59583 14.96440 21.87460 -3.85925 -16.48960 16.12340 14.19900 0.00000 0.00000 0.00000 -51.52420 -27.51730 -60.93590 0.31283 5.75674 -58.69030 28.75970 9.14654 1.26841 11.41890 1.16688 5.32809 75.09030 -28.74750 88.28810 -6.26376 31.27640 97.17670 -10.23350 8.84084 8.54338 20.13860 3.23140 0.45421 -5.28722 16.52550 15.95810 -3.27984 -5.67373 0.07583 -2.49064 0.38301 -10.55150 -26.97870 -34.74500 -9.18074 44.45670 73.23150 -31.07380 29.26340 6.93180 -3.86797 26.19720 50.28900 -34.33580 
